<?xml version="1.0" standalone="no"?>
<!DOCTYPE svg PUBLIC "-//W3C//DTD SVG 20010904//EN"
 "http://www.w3.org/TR/2001/REC-SVG-20010904/DTD/svg10.dtd">
<svg version="1.0" xmlns="http://www.w3.org/2000/svg"
 width="776.000000pt" height="776.000000pt" viewBox="0 0 776.000000 776.000000"
 preserveAspectRatio="xMidYMid meet">
<metadata>
Created by potrace 1.14, written by Peter Selinger 2001-2017
</metadata>
<g transform="translate(0.000000,776.000000) scale(0.100000,-0.100000)"
fill="#000000" stroke="none">
<path d="M3673 6669 c-106 -16 -283 -64 -405 -112 -160 -63 -2971 -1272 -3033
-1305 -75 -40 -156 -126 -196 -207 -32 -66 -34 -76 -34 -175 0 -95 3 -111 28
-162 33 -67 102 -147 163 -189 60 -41 2877 -1408 3039 -1474 249 -102 406
-135 645 -135 239 0 396 33 645 135 72 29 711 335 1420 680 710 345 1296 629
1303 632 9 4 12 -85 12 -426 l0 -431 -30 0 c-20 0 -40 -9 -56 -25 l-25 -25 3
-622 3 -623 28 -80 c60 -171 144 -315 183 -315 33 0 95 92 144 216 69 171 64
111 67 789 2 341 2 629 -1 641 -6 23 -44 44 -81 44 l-25 0 0 483 1 482 60 35
c75 43 158 130 196 207 25 53 28 68 28 163 0 99 -2 109 -34 175 -40 81 -121
167 -196 207 -62 33 -2873 1242 -3033 1305 -130 51 -296 96 -415 112 -91 13
-314 12 -404 0z m1425 -1104 c76 -50 105 -156 65 -240 -20 -43 -1404 -1338
-1465 -1372 -50 -28 -120 -30 -169 -5 -38 20 -801 633 -836 672 -52 58 -56
159 -10 229 47 70 156 102 231 66 18 -9 178 -133 355 -275 177 -143 326 -260
331 -260 8 0 898 824 1251 1157 71 68 170 79 247 28z"/>
<path d="M1253 3038 c4 -655 1 -626 82 -794 194 -403 741 -791 1405 -997 722
-224 1558 -224 2280 0 663 206 1211 595 1405 996 81 169 78 140 82 795 4 464
2 582 -8 582 -7 0 -436 -204 -953 -454 -1099 -531 -1146 -551 -1351 -597 -127
-29 -404 -36 -541 -15 -107 16 -264 63 -411 122 -49 20 -511 240 -1029 490
-517 250 -946 454 -953 454 -10 0 -12 -118 -8 -582z"/>
</g>
</svg>
